<svg width="295" height="140" viewBox="0 0 295 140" fill="none" xmlns="http://www.w3.org/2000/svg">
<path d="M117.071 90.4578C112.576 96.017 104.493 96.5306 97.3561 96.9929C95.0565 97.1412 90.1804 95.0199 87.6955 92.9462C84.9512 90.6555 82.3587 83.5556 82.184 81.4096C82.0163 79.343 81.6386 75.9034 82.3675 74.165C82.8317 71.929 83.9558 68.2388 86.9172 64.8203C88.3096 63.2108 90.3251 60.883 93.8335 59.9106C96.3113 59.2241 111.085 57.2846 117.595 63.772C120.094 66.264 121.066 69.003 121.432 70.286C123.384 77.1635 121.569 84.9004 117.071 90.4578Z" fill="black"/>
<path d="M116.323 89.7095C113.522 93.105 109.35 94.4992 105.135 95.1893C102.901 95.5546 100.639 95.7187 98.3814 95.8687C96.4454 95.9976 94.7953 95.5969 93.0023 94.8345C91.2092 94.0721 89.2838 93.128 87.939 91.7232C86.6789 90.4066 85.823 88.6648 85.08 87.0199C83.5199 83.5662 82.8634 80.3772 83.0046 76.6128C83.0699 74.8657 83.6611 73.0179 84.2611 71.3801C85.0818 69.1388 86.3366 67.0916 87.9037 65.2951C89.1938 63.8161 90.5845 62.4714 92.3616 61.5907C93.4682 61.0436 94.6347 60.7771 95.8436 60.5918C98.7097 60.1524 101.788 60.0518 104.728 60.2389C108.264 60.463 111.981 61.1477 115.018 63.0679C122.796 67.9882 122.319 79.5495 118.338 86.6935C117.749 87.7506 117.078 88.7636 116.323 89.7078C115.481 90.7614 116.968 92.2703 117.821 91.2061C123.839 83.6756 125.814 71.449 119.009 63.7279C116.286 60.6377 112.29 59.1623 108.312 58.5217C104.699 57.9393 101 57.9058 97.3631 58.2834C96.209 58.4034 95.0406 58.5411 93.9076 58.8005C91.8428 59.2735 89.9633 60.3677 88.3855 61.7566C84.93 64.7991 82.4646 68.9747 81.441 73.4556C81.208 74.4756 80.9451 75.4233 80.8956 76.4822C80.8392 77.7052 80.9221 78.9318 81.0209 80.1513C81.1604 81.8808 81.4745 83.4515 82.0498 85.0928C82.7611 87.1205 83.6311 89.1324 84.7588 90.9643C85.8248 92.6974 87.129 93.991 88.8585 95.064C90.8086 96.2746 93.0182 97.3 95.263 97.81C97.3773 98.2918 99.6362 97.9212 101.77 97.72C106.44 97.2824 111.422 96.4758 115.28 93.6062C116.224 92.9038 117.073 92.1114 117.823 91.2043C118.684 90.1613 117.194 88.6542 116.324 89.706L116.323 89.7095Z" fill="black"/>
<path d="M48.9348 84.7628C44.2421 90.6696 36.7664 94.4498 29.3012 93.6257C21.6119 92.7768 17.9923 88.8095 15.2162 81.489C12.3113 73.835 13.7479 70.8525 14.7821 68.7523C15.758 66.7634 18.8676 63.6308 18.8676 63.6308C24.4303 59.1659 27.4905 58.1458 27.4905 58.1458C40.0419 53.5467 51.3455 62.4819 52.948 72.072C53.7686 76.987 52.0762 81.4184 48.9348 84.7628Z" fill="black"/>
<path d="M48.1866 84.0145C42.7192 90.8179 33.3727 94.794 24.8698 91.5167C21.7214 90.3025 19.473 87.823 17.9023 84.9075C16.854 82.9627 16.0334 80.8766 15.4051 78.7606C14.8862 77.0152 14.505 75.2116 14.565 73.3815C14.648 70.8595 15.7634 68.8053 17.3623 66.8746C18.2164 65.8422 19.0989 64.7815 20.156 63.9521C21.7831 62.6761 23.4827 61.4742 25.2704 60.4312C25.7893 60.1277 26.3187 59.8383 26.8588 59.5718C27.0388 59.4835 27.2223 59.3988 27.4058 59.3141C27.4747 59.2823 27.5453 59.2523 27.6159 59.2223C27.3282 59.3441 27.5311 59.2576 27.5964 59.2329C29.063 58.6805 30.6002 58.2711 32.1585 58.0858C36.2635 57.5952 40.4037 58.5658 43.8945 60.7666C47.4118 62.9849 50.269 66.4422 51.4815 70.4483C52.9516 75.3051 51.6032 80.3207 48.1883 84.0145C47.2636 85.0134 48.7584 86.5152 49.6867 85.5128C53.1175 81.8032 54.7852 76.9676 53.9946 71.9396C53.3575 67.8841 51.0826 64.1215 48.0983 61.3507C42.2797 55.9486 33.4256 54.1873 26.1281 57.5828C24.7127 58.2411 23.3732 59.0706 22.0814 59.9424C20.4966 61.0119 18.8324 62.1113 17.5193 63.5126C15.4651 65.701 13.462 68.1117 12.749 71.0978C11.7943 75.1039 13.1814 79.3907 14.7115 83.0632C16.2063 86.6511 18.2606 90.0766 21.6031 92.2191C25.1734 94.5081 29.8342 95.1628 33.9798 94.621C38.9036 93.9769 43.4904 91.6385 47.1206 88.2783C48.0454 87.4223 48.8978 86.4958 49.6867 85.5146C50.532 84.4627 49.0443 82.9538 48.1883 84.0162L48.1866 84.0145Z" fill="black"/>
<path d="M140.993 60.2971C141.152 61.1672 141.152 60.9307 140.677 57.0534C139.886 53.4126 139.173 49.0623 137.513 45.6597C134.98 41.3077 132.211 37.1145 129.204 33.2372C128.413 32.4466 127.623 31.4971 126.989 30.5476C124.061 27.1451 120.976 23.9013 117.574 20.9735C108.079 12.5871 96.9237 7.365 84.1059 4.27834C83.947 4.43717 76.5101 1.66818 69.4685 0.798121C63.9287 -0.78492 56.017 0.55987 54.2769 0.0851349C47.3147 0.798121 40.589 2.30174 33.9427 4.67542C33.7839 4.75307 17.8811 13.7731 17.7223 13.8525C12.8179 17.0168 8.30699 21.5277 6.01273 24.1378C5.22209 25.3255 4.42969 26.5909 3.71847 27.7786C2.45309 30.9429 1.18596 35.9268 0 38.1434L13.0543 26.0368C18.04 21.8436 27.7712 21.2894 27.7712 21.2894C27.7712 21.2894 18.3559 29.044 13.6879 36.4809L9.57236 44.6309C9.57236 44.6309 8.54524 46.2139 6.9622 50.4865C5.37916 54.6797 4.03437 56.7357 0.949471 65.6763C0.870054 65.9145 0.790638 66.2304 0.790638 66.4687C0.236485 71.8479 0.474736 77.1494 1.02889 82.4509C1.50362 88.2271 2.53075 92.7362 4.82677 98.1966V98.2742C5.61741 100.096 6.32863 101.994 6.9622 103.893C8.46582 106.267 9.96945 108.641 11.4713 111.013C11.5507 111.092 11.6301 111.251 11.7096 111.33C12.3431 112.2 13.0543 113.07 13.6879 113.94C13.7673 114.02 13.845 114.099 13.9244 114.179C16.2981 116.789 18.2764 119.717 20.6501 122.329L27.1376 127.313C28.4824 128.024 29.7495 128.816 31.0943 129.448C33.2297 130.477 35.3669 131.585 37.5818 132.614C39.2442 133.168 40.9843 133.721 42.7244 134.354L45.0981 135.304C47.6306 135.619 52.378 136.887 52.9321 137.044C53.0892 137.044 54.5134 137.203 63.6922 138.468C64.0081 138.547 64.4829 138.547 64.4829 138.547L68.8349 138.865C68.8349 138.865 73.2664 139.26 79.3585 138.786L84.66 137.677C91.4634 136.648 107.209 128.498 117.415 121.616C119.63 120.112 121.688 118.056 123.032 115.76C126.673 109.511 129.996 103.101 133.397 96.6135V103.814L133.715 103.893C134.269 101.756 134.901 99.6984 135.534 97.6424L139.253 86.2488C140.598 77.6241 141.627 68.9994 140.993 60.2971ZM75.2429 31.3383C75.4018 31.6542 75.5606 32.0513 75.7177 32.4466C66.4612 36.6398 57.2048 40.833 47.4718 45.185C57.916 47.954 67.8854 47.0045 77.4596 44.1561C84.5012 42.0984 91.0681 38.7752 97.9508 36.165C98.9797 35.7697 100.879 35.7697 101.512 36.4809C104.518 39.5676 107.13 42.9702 110.057 46.4504C104.677 47.0045 99.7721 47.084 94.9454 48.0334C87.3496 49.4576 79.9903 51.9884 75.1653 58.557C67.5695 68.8424 67.806 80.0772 72.5534 91.4708C72.9487 92.4203 73.5028 93.3698 73.9776 94.3193C74.057 94.5558 73.9776 94.794 73.9776 95.4276C68.7555 95.1893 63.5334 94.9511 57.916 94.6352C63.9287 84.1116 67.2519 73.5103 61.6344 62.1961C56.0965 50.9613 46.0476 46.9251 34.0221 45.5803C43.5168 38.934 65.9071 29.5187 75.2429 31.3383ZM83.7882 117.502C81.4145 111.251 79.1997 105.554 76.9848 99.8573C77.3007 99.7778 77.696 99.6984 78.0137 99.5414C81.8892 101.756 85.6871 103.893 90.1186 106.424C88.1402 109.827 86.0842 113.386 83.7882 117.502ZM93.0464 107.612L97.8732 108.402C98.9797 111.33 99.8498 114.89 101.117 118.608C96.5266 119.083 92.1764 119.48 86.716 120.033C89.2485 115.444 90.8298 111.251 93.0464 107.612ZM80.7033 119.876C75.7177 120.43 70.3385 120.507 64.167 119.876C67.3313 113.94 70.3385 108.244 73.7411 101.836C76.1148 108.166 78.3296 113.783 80.7033 119.876ZM53.0116 101.361C54.9087 108.166 56.4918 114.099 58.2319 120.35H41.6179C45.4934 113.861 49.0548 107.928 53.0116 101.361ZM39.4013 116.789C38.6107 112.437 38.0565 108.877 37.4247 105.079C41.0637 104.13 44.1486 103.339 48.0259 102.39C46.4429 105.079 45.0981 107.294 43.7533 109.511C42.4085 111.726 41.0637 113.94 39.4013 116.789ZM56.0965 98.2742C61.3185 98.5125 65.9071 98.749 71.288 98.9078C67.8854 105.079 64.8782 110.617 61.3185 117.107C59.3402 110.222 57.8366 104.605 56.0965 98.2742ZM6.17156 72.8767C5.77624 64.8857 10.6807 59.5842 16.9316 55.1545C27.217 47.8746 50.1631 48.5082 57.6001 64.7268C63.454 77.7035 55.9376 99.8573 35.3669 99.9367C20.1754 100.016 6.88278 87.9889 6.17156 72.8767ZM31.2708 104.88L33.3886 105.586L34.4475 111.41C35.0793 115.569 35.2857 114.419 35.9211 119.48C31.1384 117.782 28.613 115.924 25.6234 112.822C27.9423 110.247 31.2708 104.88 31.2708 104.88ZM23.1526 110.351C18.8747 105.093 17.5052 98.3501 17.5052 98.3501C17.7593 98.5654 25.5175 102.81 28.6236 104.174C27.2841 105.946 25.761 108.037 23.1526 110.351ZM122.953 109.906C122.162 111.171 121.292 112.437 120.343 113.545C117.179 117.422 113.222 120.587 108.474 123.199C95.3407 130.477 81.9687 135.778 66.5406 134.749C53.3275 133.879 40.9843 130.161 29.4318 123.831C29.1054 123.652 27.9123 122.879 26.5164 121.958C26.4405 122.036 23.3397 119.824 19.0935 114.41C18.1123 113.159 14.0991 108.422 13.0932 106.821C9.21058 100.644 8.15169 92.7027 8.15169 92.7027L13.7991 96.7618L15.9169 104.703L20.3289 111.586L25.1469 117.004L28.0941 119.528C28.1153 119.533 33.4574 122.21 35.6828 122.705C38.8595 123.411 38.7024 123.107 46.2717 123.411C60.1926 123.97 86.4584 123.296 95.9742 122.803C101.196 122.565 105.864 121.141 109.662 118.531C113.142 116.157 115.834 112.675 117.733 107.928C118.049 107.217 118.76 106.583 119.473 106.108C120.502 105.475 121.529 104.843 122.637 104.13C124.061 103.26 125.486 102.39 126.989 101.52C125.881 104.605 124.536 107.374 122.953 109.906ZM101.512 108.244C105.626 108.007 109.344 107.848 113.617 107.612C112.272 112.121 108.713 114.336 104.677 116.948C103.568 113.94 102.621 111.251 101.512 108.244ZM129.125 84.3498C128.413 87.2776 127.305 90.1261 126.198 92.8951C123.982 98.2742 121.292 100.096 114.171 102.547L104.992 104.05C98.505 104.05 94.7865 102.469 90.1186 100.648C78.409 95.98 72.8693 86.1693 74.1364 73.7468C75.2429 62.9073 82.9975 54.7591 95.4995 52.7808C101.353 51.9107 107.763 51.5931 113.46 53.0967C125.565 56.261 133.081 68.6835 129.125 84.3498Z" fill="black"/>
<path d="M28.6236 104.174C27.2841 105.946 25.761 108.037 23.1526 110.351C18.8747 105.093 17.5052 98.3501 17.5052 98.3501C17.7594 98.5654 25.5175 102.81 28.6236 104.174Z" fill="white"/>
<path d="M35.9211 119.48C31.1384 117.783 28.613 115.924 25.6234 112.822C27.9424 110.247 31.2708 104.88 31.2708 104.88L33.3886 105.586L34.4475 111.41C35.0793 115.569 35.2858 114.419 35.9211 119.48Z" fill="white"/>
<path d="M48.026 102.39C46.4429 105.079 45.0981 107.294 43.7533 109.511C42.4086 111.726 41.0638 113.94 39.4013 116.789C38.6107 112.437 38.0565 108.877 37.4247 105.079C41.0638 104.13 44.1487 103.339 48.026 102.39Z" fill="white"/>
<path d="M58.2319 120.35H41.6179C45.4935 113.861 49.0549 107.928 53.0116 101.361C54.9088 108.166 56.4918 114.099 58.2319 120.35Z" fill="white"/>
<path d="M71.288 98.9078C67.8854 105.079 64.8782 110.617 61.3185 117.107C59.3402 110.222 57.8365 104.605 56.0964 98.2742C61.3185 98.5125 65.907 98.749 71.288 98.9078Z" fill="white"/>
<path d="M80.7033 119.876C75.7177 120.43 70.3385 120.507 64.167 119.876C67.3313 113.941 70.3385 108.244 73.7411 101.836C76.1148 108.166 78.3296 113.783 80.7033 119.876Z" fill="white"/>
<path d="M90.1186 106.424C88.1402 109.827 86.0842 113.386 83.7882 117.502C81.4145 111.251 79.1996 105.554 76.9848 99.8572C77.3007 99.7778 77.696 99.6984 78.0137 99.5413C81.8892 101.756 85.6871 103.893 90.1186 106.424Z" fill="white"/>
<path d="M101.117 118.608C96.5266 119.083 92.1764 119.48 86.716 120.033C89.2485 115.444 90.8298 111.251 93.0464 107.612L97.8732 108.403C98.9797 111.33 99.8498 114.89 101.117 118.608Z" fill="white"/>
<path d="M113.617 107.612C112.272 112.121 108.713 114.336 104.677 116.948C103.568 113.941 102.621 111.251 101.512 108.244C105.626 108.007 109.344 107.848 113.617 107.612Z" fill="white"/>
<path d="M126.989 101.52C125.881 104.605 124.536 107.374 122.953 109.906C122.162 111.171 121.292 112.437 120.343 113.545C117.179 117.422 113.222 120.587 108.474 123.199C95.3407 130.477 81.9687 135.778 66.5406 134.749C53.3275 133.879 40.9843 130.161 29.4318 123.831C29.1054 123.652 27.9123 122.879 26.5164 121.958C26.4405 122.036 23.3397 119.824 19.0935 114.41C18.1123 113.159 14.0991 108.422 13.0932 106.821C9.21058 100.644 8.15169 92.7027 8.15169 92.7027L13.7991 96.7618L15.9169 104.703L20.3289 111.586L25.1469 117.004L28.0941 119.528C28.1153 119.533 33.4574 122.21 35.6828 122.705C38.8595 123.411 38.7024 123.107 46.2717 123.411C60.1926 123.97 86.4584 123.296 95.9742 122.803C101.196 122.565 105.864 121.141 109.662 118.531C113.142 116.157 115.834 112.675 117.733 107.928C118.049 107.217 118.76 106.583 119.473 106.108C120.502 105.475 121.529 104.843 122.637 104.13C124.061 103.26 125.486 102.39 126.989 101.52Z" fill="white"/>
<path d="M57.6001 64.7268C50.1631 48.5082 27.217 47.8746 16.9317 55.1545C10.6807 59.5842 5.77625 64.8857 6.17157 72.8768C6.88279 87.9889 20.1754 100.016 35.3669 99.9367C55.9376 99.8573 63.454 77.7035 57.6001 64.7268ZM48.9348 84.7628C44.2422 90.6696 36.7664 94.4499 29.3013 93.6257C21.6119 92.7768 17.9923 88.8095 15.2163 81.4891C12.3114 73.8351 13.7479 70.8525 14.7821 68.7524C15.7581 66.7634 18.8677 63.6309 18.8677 63.6309C24.4304 59.1659 27.4906 58.1458 27.4906 58.1458C40.0419 53.5467 51.3456 62.482 52.948 72.072C53.7687 76.987 52.0762 81.4185 48.9348 84.7628Z" fill="white"/>
<path d="M113.46 53.0967C107.763 51.593 101.353 51.9107 95.4995 52.7808C82.9976 54.7591 75.243 62.9073 74.1364 73.7468C72.8693 86.1693 78.409 95.9799 90.1186 100.648C94.7865 102.469 98.505 104.05 104.992 104.05L114.171 102.547C121.292 100.095 123.982 98.2742 126.198 92.895C127.305 90.126 128.413 87.2776 129.125 84.3498C133.081 68.6835 125.565 56.261 113.46 53.0967ZM117.071 90.4578C112.576 96.017 104.493 96.5306 97.3561 96.9929C95.0565 97.1412 90.1804 95.0199 87.6955 92.9462C84.9512 90.6555 82.3587 83.5556 82.184 81.4096C82.0163 79.343 81.6386 75.9034 82.3675 74.165C82.8317 71.929 83.9559 68.2388 86.9172 64.8203C88.3097 63.2108 90.3251 60.883 93.8335 59.9106C96.3113 59.2241 111.085 57.2846 117.595 63.772C120.094 66.264 121.066 69.003 121.432 70.286C123.384 77.1635 121.569 84.9004 117.071 90.4578Z" fill="white"/>
<path d="M110.058 46.4504C104.677 47.0045 99.7722 47.084 94.9454 48.0334C87.3496 49.4576 79.9903 51.9884 75.1653 58.557C67.5696 68.8424 67.806 80.0772 72.5534 91.4708C72.9487 92.4203 73.5029 93.3698 73.9776 94.3193C74.057 94.5558 73.9776 94.794 73.9776 95.4276C68.7555 95.1893 63.5334 94.9511 57.916 94.6352C63.9287 84.1116 67.2519 73.5103 61.6345 62.1961C56.0965 50.9613 46.0476 46.9251 34.0222 45.5803C43.5169 38.934 65.9071 29.5187 75.243 31.3383C75.4018 31.6542 75.5606 32.0513 75.7177 32.4466C66.4612 36.6398 57.2048 40.833 47.4718 45.185C57.916 47.954 67.8855 47.0045 77.4596 44.1561C84.5012 42.0984 91.0681 38.7752 97.9509 36.165C98.9798 35.7697 100.879 35.7697 101.512 36.4809C104.518 39.5676 107.13 42.9702 110.058 46.4504Z" fill="white"/>
<path d="M268.096 92.3403C263.601 97.8994 255.518 98.413 248.381 98.8754C246.082 99.0236 241.206 96.9023 238.721 94.8287C235.977 92.5379 233.384 85.4381 233.209 83.2921C233.042 81.2255 232.664 77.7858 233.393 76.0475C233.857 73.8115 234.981 70.1212 237.943 66.7028C239.335 65.0933 241.35 62.7655 244.859 61.7931C247.337 61.1066 262.11 59.167 268.62 65.6545C271.119 68.1464 272.092 70.8854 272.457 72.1684C274.409 79.0459 272.595 86.7829 268.096 92.3403Z" fill="black"/>
<path d="M267.348 91.592C264.547 94.9875 260.375 96.3817 256.161 97.0717C253.927 97.437 251.664 97.6012 249.407 97.7512C247.471 97.88 245.821 97.4794 244.028 96.717C242.261 95.9652 240.309 95.0104 238.964 93.6056C237.704 92.2891 236.848 90.5472 236.105 88.9024C234.545 85.4486 233.889 82.2596 234.03 78.4953C234.095 76.7481 234.686 74.9003 235.287 73.2626C236.107 71.0213 237.362 68.9741 238.929 67.1775C240.219 65.6986 241.61 64.3538 243.387 63.4732C244.494 62.9261 245.66 62.6596 246.869 62.4743C249.735 62.0348 252.813 61.9342 255.753 62.1213C259.29 62.3454 263.006 63.0302 266.044 64.9503C273.821 69.8706 273.345 81.4319 269.363 88.5759C268.774 89.633 268.103 90.646 267.348 91.5902C266.506 92.6438 267.994 94.1527 268.846 93.0885C274.864 85.5581 276.839 73.3314 270.034 65.6103C267.311 62.5202 263.315 61.0448 259.337 60.4041C255.725 59.8217 252.026 59.7882 248.389 60.1659C247.234 60.2859 246.066 60.4236 244.933 60.683C242.868 61.156 240.989 62.2501 239.411 63.639C235.955 66.6816 233.49 70.8571 232.466 75.338C232.233 76.3581 231.97 77.304 231.921 78.3647C231.865 79.5877 231.947 80.8142 232.046 82.0337C232.186 83.7632 232.5 85.3339 233.075 86.9752C233.786 89.003 234.656 91.0149 235.784 92.8468C236.85 94.5798 238.154 95.8734 239.884 96.9464C241.834 98.1571 244.044 99.1824 246.288 99.6925C248.403 100.174 250.662 99.8037 252.795 99.6025C257.465 99.1648 262.447 98.3583 266.305 95.4887C267.249 94.7863 268.098 93.9939 268.848 93.0868C269.709 92.0438 268.22 90.5366 267.35 91.5884L267.348 91.592Z" fill="black"/>
<path d="M199.96 86.6452C195.268 92.552 187.792 96.3323 180.327 95.5081C172.637 94.6592 169.018 90.6919 166.242 83.3715C163.337 75.7175 164.773 72.7349 165.807 70.6348C166.783 68.6458 169.893 65.5133 169.893 65.5133C175.456 61.0483 178.516 60.0282 178.516 60.0282C191.067 55.4291 202.371 64.3644 203.973 73.9544C204.794 78.8694 203.102 83.3009 199.96 86.6452Z" fill="black"/>
<path d="M199.212 85.8969C193.744 92.7003 184.398 96.6764 175.895 93.3992C172.747 92.185 170.498 89.7054 168.928 86.7899C167.879 84.8451 167.059 82.7591 166.43 80.6431C165.912 78.8977 165.53 77.094 165.59 75.2639C165.673 72.742 166.789 70.6877 168.388 68.757C169.242 67.7246 170.124 66.664 171.181 65.8345C172.808 64.5585 174.508 63.3567 176.296 62.3137C176.815 62.0101 177.344 61.7207 177.884 61.4542C178.064 61.366 178.248 61.2813 178.431 61.1966C178.5 61.1648 178.571 61.1348 178.641 61.1048C178.354 61.2266 178.556 61.1401 178.622 61.1154C180.088 60.563 181.625 60.1535 183.184 59.9682C187.289 59.4776 191.429 60.4483 194.92 62.649C198.437 64.8674 201.294 68.3247 202.507 72.3308C203.977 77.1876 202.629 82.2032 199.214 85.8969C198.289 86.8958 199.784 88.3977 200.712 87.3953C204.143 83.6856 205.811 78.85 205.02 73.8221C204.383 69.7665 202.108 66.0039 199.124 63.2332C193.305 57.8311 184.451 56.0698 177.153 59.4653C175.738 60.1235 174.399 60.953 173.107 61.8248C171.522 62.8943 169.858 63.9938 168.545 65.3951C166.49 67.5834 164.487 69.9942 163.774 72.9802C162.82 76.9864 164.207 81.2731 165.737 84.9457C167.232 88.5336 169.286 91.9591 172.628 94.1016C176.199 96.3905 180.86 97.0453 185.005 96.5035C189.929 95.8593 194.516 93.5209 198.146 90.1607C199.071 89.3048 199.923 88.3783 200.712 87.397C201.557 86.3452 200.07 84.8363 199.214 85.8987L199.212 85.8969Z" fill="black"/>
<path d="M294.205 66.4733C294.201 64.7491 294.141 63.0267 294.016 61.2971C294.163 62.1037 294.175 61.9589 293.797 58.8493C293.767 58.604 293.735 58.3375 293.7 58.0534C292.91 54.4126 292.197 50.0623 290.536 46.6597C288.003 42.3077 285.234 38.1145 282.227 34.2372C281.436 33.4466 280.646 32.4971 280.012 31.5476C277.084 28.1451 274 24.9013 270.597 21.9735C261.102 13.5871 249.947 8.365 237.129 5.27834C236.97 5.43717 229.533 2.66818 222.492 1.79812C216.952 0.21508 209.04 1.55987 207.3 1.08513C200.338 1.79812 193.612 3.30174 186.966 5.67542C186.807 5.75307 171.923 15.2654 171.764 15.3449C159.105 31.1682 155.132 42.7224 153.913 48.984C153.964 48.8375 154.063 48.5569 154.064 48.5534C154.239 47.7522 153.883 50.7877 153.643 51.5801C153.632 51.6136 153.621 51.6489 153.611 51.6824C153.683 51.1459 153.586 51.0153 153.56 51.1777C153.56 51.1812 153.558 51.1847 153.558 51.1865C151.294 64.4879 150.388 91.4826 150 110.292L151.059 129.705L154.412 117.881L158.648 128.999L162.001 122.999L165.53 129.352L169.766 122.999L173.472 131.999L174.79 122.859L180.281 127.077C181.626 127.788 182.893 128.581 184.237 129.213C186.373 130.241 188.51 131.35 190.725 132.379C192.387 132.933 194.127 133.485 195.868 134.119L198.241 135.068C200.774 135.384 205.521 136.651 206.075 136.808C206.232 136.808 207.657 136.967 216.835 138.233C217.151 138.312 217.626 138.312 217.626 138.312L221.978 138.63C221.978 138.63 226.409 139.025 232.502 138.55L237.803 137.442C243.999 136.505 257.613 129.663 267.703 123.251L266.716 135.901L271.834 131.489L272.893 135.901L278.717 128.313L280.129 135.195L282.952 128.665C282.952 128.665 287.582 132.417 288.413 133.815C288.422 133.702 288.436 133.57 288.452 133.42C288.443 133.423 288.434 133.427 288.423 133.43C288.386 133.443 288.385 133.272 288.413 132.933C288.443 132.984 288.469 133.033 288.489 133.078C289.248 126.632 294.233 96.4717 294.715 78.8782C294.851 73.9491 294.627 69.8547 294.205 66.4733ZM246.5 49.3864C238.799 50.0306 231.545 53.3413 226.72 59.91C219.124 70.1953 219.361 81.4302 224.108 92.8238C224.503 93.7733 225.058 94.7228 225.532 95.6722C225.612 95.9087 225.532 96.147 225.532 96.7805C220.31 96.5423 215.088 96.304 209.471 95.9881C215.484 85.4645 218.807 74.8633 213.189 63.549C207.651 52.3142 190.263 48.9858 178.237 47.641C201.369 44.0249 253.113 48.834 246.5 49.3864ZM235.343 118.855C235.249 118.608 235.156 118.361 235.061 118.114C232.793 112.152 230.666 106.681 228.54 101.21C228.727 101.163 228.94 101.117 229.15 101.053C229.295 101.011 229.438 100.958 229.569 100.894C233.444 103.109 237.242 105.246 241.673 107.777C239.695 111.18 237.639 114.739 235.343 118.855ZM244.539 109.069C244.559 109.034 244.58 109 244.601 108.965L249.428 109.755C250.535 112.683 251.405 116.243 252.672 119.961C248.081 120.436 243.731 120.833 238.271 121.386C238.285 121.361 238.297 121.336 238.311 121.311C240.796 116.795 242.367 112.664 244.539 109.069ZM232.258 121.229C229.583 121.527 226.792 121.686 223.828 121.672C221.269 121.661 218.579 121.521 215.722 121.229C218.759 115.532 221.652 110.054 224.888 103.955C225.024 103.7 225.16 103.444 225.296 103.189C227.67 109.519 229.884 115.136 232.258 121.229ZM204.09 103.504C204.249 103.242 204.408 102.979 204.566 102.714C206.464 109.519 208.047 115.452 209.787 121.703H193.173C196.891 115.475 200.322 109.761 204.09 103.504ZM190.956 118.142C190.9 117.835 190.845 117.531 190.792 117.233C190.086 113.287 189.567 109.962 188.979 106.432C192.361 105.55 195.264 104.805 198.769 103.942C199.035 103.877 199.307 103.81 199.581 103.743C197.998 106.432 196.653 108.647 195.308 110.864C193.963 113.079 192.619 115.293 190.956 118.142ZM207.66 99.659C207.657 99.6484 207.655 99.6378 207.651 99.6272C212.873 99.8654 217.462 100.102 222.843 100.261C219.44 106.432 216.433 111.97 212.873 118.46C212.792 118.179 212.713 117.902 212.635 117.627C210.775 111.128 209.326 105.719 207.66 99.659ZM158.517 79.5595C158.494 79.4695 158.473 79.3812 158.452 79.2912C158.471 79.6759 158.492 80.0589 158.517 80.4419C158.083 78.7212 157.813 76.9387 157.726 75.1121C157.705 74.6674 157.7 74.2297 157.71 73.8009C157.663 71.9513 157.901 70.2483 158.376 68.6688C162.53 61.0536 163.93 59.737 168.486 56.5074C172.378 53.7543 178.082 52.1324 184.073 52.0601C193.916 51.9383 204.531 55.9974 209.155 66.0798C215.009 79.0565 207.492 101.21 186.922 101.29H186.601C173.767 101.214 162.348 92.5114 158.817 80.6519C158.709 80.2919 158.611 79.9265 158.517 79.5595ZM181.924 106.369C181.924 106.369 181.933 106.358 181.936 106.353L185.418 106.432L185.893 108.727C186.526 112.683 187.486 115.129 188.12 120.351C187.876 120.304 180.178 117.351 176.472 114.528C179.119 110.821 180.178 109.057 181.924 106.369ZM174.531 112.233C174.531 112.233 172.353 102.248 172.413 102.174C175.262 103.36 178.237 105.703 178.237 105.703L174.531 112.233ZM269.478 117.351C268.243 118.763 264.447 121.407 261.618 122.963C249.463 129.698 237.104 134.742 223.102 134.639C223.081 134.639 223.062 134.639 223.04 134.639C221.932 134.631 220.813 134.59 219.684 134.514C206.471 133.644 194.127 129.926 182.575 123.595C181.881 123.217 177.323 120.177 175.136 118.717H175.135C175.082 118.68 175.03 118.645 174.981 118.613C174.949 118.592 174.917 118.571 174.887 118.551C174.46 118.265 174.153 118.059 174.032 117.978L171.707 115.41C169.768 113.019 167.468 108.628 165.026 103.429C163.729 101.194 162.013 97.7106 161.471 94.1633C161.425 94.0204 161.383 93.8756 161.339 93.7309C161.23 93.3691 161.124 93.0038 161.02 92.6332C163.226 94.841 165.056 96.6711 166.948 98.563C168.947 107.729 170.627 111.993 171.707 113.645C172.413 114.528 173.649 115.939 173.649 115.939C173.649 115.939 177.168 118.578 177.178 118.587C180.33 120.854 185.183 122.478 185.305 122.478C185.303 122.474 185.3 122.473 185.296 122.469C197.288 126.546 200.364 124.922 215.826 124.936C227.518 124.947 239.298 124.305 248.997 123.803C254.219 123.565 258.887 122.141 262.685 119.531C266.166 117.157 268.857 113.675 270.756 108.928C271.072 108.217 271.783 107.583 272.496 107.108C272.96 106.822 273.424 106.538 273.895 106.243C272.39 109.729 269.565 117.252 269.478 117.351ZM253.067 109.597C256.951 109.373 260.485 109.219 264.464 109.004C264.699 108.991 264.934 108.977 265.172 108.965C263.827 113.474 260.267 115.689 256.231 118.301C256.187 118.179 256.143 118.059 256.097 117.939C255.047 115.076 254.131 112.482 253.067 109.597ZM280.679 85.7028C279.968 88.6306 278.86 91.479 277.753 94.248C275.537 99.6272 272.847 101.448 265.726 103.9L256.547 105.403C256.332 105.403 256.12 105.402 255.91 105.398C249.811 105.298 246.186 103.762 241.673 102.001C229.964 97.3329 224.424 87.5223 225.691 75.0998C226.798 64.2603 234.552 56.1121 247.054 54.1337C249.788 53.7261 252.643 53.4419 255.492 53.4049H255.525C258.762 53.3661 261.99 53.652 265.015 54.4497C277.12 57.614 284.636 70.0365 280.679 85.7028Z" fill="black"/>
<path d="M273.895 106.243C272.39 109.729 269.565 117.252 269.478 117.351C268.243 118.763 264.447 121.407 261.618 122.963C249.463 129.698 237.104 134.742 223.102 134.639C223.081 134.639 223.062 134.639 223.04 134.639C221.932 134.631 220.813 134.59 219.684 134.514C206.471 133.644 194.127 129.926 182.575 123.595C181.881 123.217 177.323 120.177 175.136 118.717H175.135C175.082 118.68 175.03 118.645 174.981 118.613C174.949 118.592 174.917 118.571 174.887 118.551C174.46 118.265 174.153 118.059 174.032 117.978L171.707 115.41C169.768 113.019 167.468 108.628 165.026 103.429C163.729 101.194 162.013 97.7106 161.471 94.1633C161.425 94.0203 161.383 93.8756 161.339 93.7309C161.23 93.3691 161.124 93.0038 161.02 92.6332C163.226 94.841 165.056 96.6711 166.948 98.563C168.947 107.729 170.627 111.993 171.707 113.645C172.413 114.527 173.649 115.939 173.649 115.939C173.649 115.939 177.168 118.578 177.178 118.587C180.33 120.854 185.183 122.478 185.305 122.478C185.303 122.474 185.3 122.473 185.296 122.469C197.288 126.546 200.364 124.922 215.826 124.936C227.518 124.947 239.298 124.305 248.997 123.803C254.219 123.565 258.887 122.141 262.685 119.531C266.166 117.157 268.857 113.675 270.756 108.928C271.072 108.217 271.783 107.583 272.496 107.108C272.96 106.822 273.424 106.538 273.895 106.243Z" fill="white"/>
<path d="M209.155 66.0798C204.531 55.9974 193.916 51.9383 184.073 52.0601C178.082 52.1324 172.378 53.7543 168.486 56.5074C163.93 59.737 162.53 61.0536 158.376 68.6688C157.901 70.2483 157.663 71.9513 157.71 73.8009C157.7 74.2297 157.705 74.6674 157.726 75.1121C157.813 76.9387 158.083 78.7212 158.517 80.4419C158.492 80.0589 158.471 79.6759 158.452 79.2912C158.473 79.3812 158.494 79.4695 158.517 79.5595C158.611 79.9265 158.709 80.2919 158.817 80.6519C162.348 92.5114 173.767 101.214 186.601 101.29H186.922C207.492 101.21 215.009 79.0565 209.155 66.0798ZM199.96 86.6452C195.268 92.552 187.792 96.3323 180.327 95.5081C172.637 94.6592 169.018 90.6919 166.242 83.3715C163.337 75.7175 164.773 72.7349 165.807 70.6348C166.783 68.6458 169.893 65.5133 169.893 65.5133C175.456 61.0483 178.516 60.0282 178.516 60.0282C191.067 55.4291 202.371 64.3644 203.973 73.9544C204.794 78.8694 203.102 83.3009 199.96 86.6452Z" fill="white"/>
<path d="M265.172 108.965C263.827 113.474 260.267 115.689 256.231 118.301C256.187 118.179 256.143 118.059 256.097 117.939C255.047 115.076 254.131 112.482 253.067 109.597C256.951 109.373 260.485 109.219 264.464 109.004C264.699 108.991 264.934 108.977 265.172 108.965Z" fill="white"/>
<path d="M252.672 119.961C248.081 120.436 243.731 120.833 238.271 121.386C238.285 121.361 238.297 121.336 238.311 121.312C240.796 116.795 242.367 112.664 244.539 109.069C244.559 109.034 244.58 109 244.601 108.965L249.428 109.755C250.535 112.683 251.405 116.243 252.672 119.961Z" fill="white"/>
<path d="M241.673 107.777C239.695 111.18 237.639 114.739 235.343 118.855C235.249 118.608 235.156 118.361 235.061 118.114C232.793 112.152 230.666 106.681 228.54 101.21C228.727 101.163 228.94 101.117 229.15 101.053C229.295 101.011 229.438 100.958 229.568 100.894C233.444 103.109 237.242 105.246 241.673 107.777Z" fill="white"/>
<path d="M232.258 121.229C229.583 121.527 226.792 121.686 223.828 121.672C221.269 121.661 218.579 121.522 215.722 121.229C218.759 115.532 221.652 110.054 224.888 103.955C225.024 103.7 225.16 103.444 225.296 103.189C227.67 109.519 229.884 115.136 232.258 121.229Z" fill="white"/>
<path d="M209.787 121.703H193.173C196.891 115.475 200.322 109.761 204.09 103.505C204.249 103.242 204.408 102.979 204.566 102.714C206.464 109.519 208.047 115.452 209.787 121.703Z" fill="white"/>
<path d="M222.843 100.261C219.44 106.432 216.433 111.97 212.873 118.46C212.792 118.179 212.713 117.902 212.635 117.627C210.775 111.129 209.326 105.719 207.66 99.659C207.657 99.6484 207.655 99.6378 207.651 99.6272C212.873 99.8654 217.462 100.102 222.843 100.261Z" fill="white"/>
<path d="M199.581 103.743C197.998 106.432 196.653 108.647 195.308 110.864C193.963 113.079 192.619 115.293 190.956 118.142C190.9 117.835 190.845 117.531 190.792 117.233C190.086 113.287 189.567 109.962 188.979 106.432C192.361 105.55 195.264 104.805 198.769 103.942C199.035 103.877 199.307 103.81 199.581 103.743Z" fill="white"/>
<path d="M188.12 120.351C187.877 120.304 180.178 117.351 176.472 114.528C179.119 110.821 180.178 109.057 181.924 106.369C181.927 106.363 181.933 106.358 181.936 106.353L185.418 106.432L185.893 108.727C186.526 112.683 187.486 115.129 188.12 120.351Z" fill="white"/>
<path d="M178.237 105.703L174.531 112.233C174.531 112.233 172.353 102.248 172.413 102.174C175.262 103.36 178.237 105.703 178.237 105.703Z" fill="white"/>
<path d="M265.015 54.4496C261.99 53.6519 258.762 53.366 255.525 53.4049H255.492C252.643 53.4419 249.788 53.7261 247.054 54.1337C234.552 56.1121 226.798 64.2603 225.691 75.0998C224.424 87.5223 229.964 97.3329 241.673 102.001C246.186 103.762 249.811 105.298 255.91 105.398C256.12 105.402 256.332 105.403 256.547 105.403L265.726 103.9C272.847 101.448 275.537 99.6272 277.753 94.248C278.86 91.479 279.968 88.6306 280.679 85.7028C284.636 70.0365 277.12 57.614 265.015 54.4496ZM268.096 92.3402C263.601 97.8994 255.518 98.413 248.381 98.8754C246.082 99.0236 241.206 96.9023 238.721 94.8286C235.977 92.5379 233.384 85.4381 233.209 83.292C233.042 81.2254 232.664 77.7858 233.393 76.0475C233.857 73.8114 234.981 70.1212 237.943 66.7028C239.335 65.0933 241.35 62.7655 244.859 61.793C247.337 61.1065 262.11 59.167 268.62 65.6545C271.119 68.1464 272.092 70.8854 272.457 72.1684C274.409 79.0459 272.595 86.7828 268.096 92.3402Z" fill="white"/>
<path d="M246.5 49.3864C238.799 50.0305 231.545 53.3413 226.72 59.91C219.124 70.1953 219.361 81.4302 224.108 92.8238C224.503 93.7733 225.058 94.7228 225.532 95.6722C225.612 95.9087 225.532 96.147 225.532 96.7805C220.31 96.5423 215.088 96.304 209.471 95.9881C215.484 85.4645 218.807 74.8633 213.189 63.549C207.651 52.3142 190.263 48.9858 178.237 47.641C201.369 44.0249 253.113 48.834 246.5 49.3864Z" fill="white"/>
</svg>
